<svg xmlns="http://www.w3.org/2000/svg" viewBox="0 0 1200 600" width="100%" height="100%">
  <rect width="1200" height="600" fill="#000000" />
  
  <path d="
    M 425 200
    H 775
    A 100 100 0 0 1 875 300
    A 100 100 0 0 1 775 400
    H 425
    C 375 400, 305 405, 255 410
    C 290 410, 325 360, 325 300
    A 100 100 0 0 1 425 200
    Z" 
    fill="#E9E9EB" 
  />

  <text 
    x="600" 
    y="305" 
    font-family="-apple-system, BlinkMacSystemFont, 'SF Pro Text', 'Helvetica Neue', Helvetica, Arial, sans-serif" 
    font-size="48" 
    font-weight="400" 
    letter-spacing="-0.5"
    fill="#000000" 
    text-anchor="middle" 
    dominant-baseline="middle">
    MarnueLgh...
  </text>
  
  <g transform="translate(800, 480) scale(0.6)">
    <path d="
      M 60 0 
      H 190 
      A 60 60 0 0 1 250 60 
      V 100 
      C 250 120, 265 140, 280 140 
      H 60 
      A 60 60 0 0 1 0 80 
      V 60 
      A 60 60 0 0 1 60 0 
      Z" 
      fill="#007AFF" 
    />
    
    <circle cx="85" cy="70" r="12" fill="#E9E9EB" />
    <circle cx="125" cy="70" r="12" fill="#E9E9EB" />
    <circle cx="165" cy="70" r="12" fill="#E9E9EB" />
  </g>

</svg>
